<?xml version="1.0" standalone="no"?><!DOCTYPE svg PUBLIC "-//W3C//DTD SVG 1.1//EN" "http://www.w3.org/Graphics/SVG/1.1/DTD/svg11.dtd"><svg t="1767693789806" class="icon" viewBox="0 0 1024 1024" version="1.1" xmlns="http://www.w3.org/2000/svg" p-id="3947" xmlns:xlink="http://www.w3.org/1999/xlink" width="200" height="200"><path d="M791.16 619.376v-150.32c0-116.128-70.904-215.664-171.784-257.728C619.36 152.144 571.184 104 512 104c-59.192 0-107.336 48.136-107.368 107.32-100.88 42.064-171.8 141.6-171.8 257.736v150.32l-64.424 85.888v42.952c0 23.624 19.328 42.936 42.952 42.936h171.792C383.16 862.2 440.968 920 512 920c71.04 0 128.84-57.8 128.84-128.84h171.8c23.624 0 42.936-19.312 42.936-42.936v-42.952l-64.416-85.896zM510.024 168.44c0.656-0.008 1.304-0.016 1.952 0 16.552 0.376 30.52 10.152 37.376 24.008a281.968 281.968 0 0 0-37.352-2.56 280.48 280.48 0 0 0-39.472 2.832c6.816-14 20.856-23.896 37.496-24.28zM512 855.576a64.416 64.416 0 0 1-64.424-64.424h128.84A64.4 64.4 0 0 1 512 855.576zM232.84 726.736l51.536-68.72a64.408 64.408 0 0 0 12.88-38.64v-150.32C297.264 350.648 393.6 254.32 512 254.32s214.728 96.336 214.728 214.736v150.32a64.504 64.504 0 0 0 12.888 38.64l51.528 68.72H232.84z" p-id="3948" fill="#d81e06"></path></svg>