<?xml version="1.0" standalone="no"?><!DOCTYPE svg PUBLIC "-//W3C//DTD SVG 1.1//EN" "http://www.w3.org/Graphics/SVG/1.1/DTD/svg11.dtd"><svg t="1767693732227" class="icon" viewBox="0 0 1024 1024" version="1.1" xmlns="http://www.w3.org/2000/svg" p-id="2889" xmlns:xlink="http://www.w3.org/1999/xlink" width="200" height="200"><path d="M85.333333 85.333333h853.333334a42.666667 42.666667 0 0 1 42.666666 42.666667v682.666667a42.666667 42.666667 0 0 1-42.666666 42.666666h-281.002667a42.666667 42.666667 0 0 0-30.165333 12.501334l-85.333334 85.333333a42.666667 42.666667 0 0 1-60.330666 0l-85.333334-85.333333A42.666667 42.666667 0 0 0 366.336 853.333333H85.333333a42.666667 42.666667 0 0 1-42.666666-42.666666V128a42.666667 42.666667 0 0 1 42.666666-42.666667z m149.333334 213.333334a21.333333 21.333333 0 0 0-21.333334 21.333333v42.666667a21.333333 21.333333 0 0 0 21.333334 21.333333h554.666666a21.333333 21.333333 0 0 0 21.333334-21.333333v-42.666667a21.333333 21.333333 0 0 0-21.333334-21.333333h-554.666666z m0 213.333333a21.333333 21.333333 0 0 0-21.333334 21.333333v42.666667a21.333333 21.333333 0 0 0 21.333334 21.333333h554.666666a21.333333 21.333333 0 0 0 21.333334-21.333333v-42.666667a21.333333 21.333333 0 0 0-21.333334-21.333333h-554.666666z" fill="#14B6A4" p-id="2890"></path></svg>