<?xml version="1.0" standalone="no"?><!DOCTYPE svg PUBLIC "-//W3C//DTD SVG 1.1//EN" "http://www.w3.org/Graphics/SVG/1.1/DTD/svg11.dtd"><svg t="1768285396858" class="icon" viewBox="0 0 1024 1024" version="1.1" xmlns="http://www.w3.org/2000/svg" p-id="15009" xmlns:xlink="http://www.w3.org/1999/xlink" width="32" height="32"><path d="M942.08 737.28H81.92a81.92 81.92 0 0 0-81.92 81.92v122.88a81.92 81.92 0 0 0 81.92 81.92h860.16a81.92 81.92 0 0 0 81.92-81.92v-122.88a81.92 81.92 0 0 0-81.92-81.92zM204.8 962.56a81.92 81.92 0 1 1 81.92-81.92 81.92 81.92 0 0 1-81.92 81.92z m634.88-30.72a30.72 30.72 0 0 1-61.44 0v-102.4a30.72 30.72 0 0 1 61.44 0z m102.4 0a30.72 30.72 0 0 1-61.44 0v-102.4a30.72 30.72 0 0 1 61.44 0zM860.16 0H163.84a163.84 163.84 0 0 0-163.84 163.84v286.72a163.84 163.84 0 0 0 163.84 163.84h696.32a163.84 163.84 0 0 0 163.84-163.84V163.84a163.84 163.84 0 0 0-163.84-163.84z m81.92 450.56a81.92 81.92 0 0 1-81.92 81.92H163.84a81.92 81.92 0 0 1-81.92-81.92V163.84a81.92 81.92 0 0 1 81.92-81.92h696.32a81.92 81.92 0 0 1 81.92 81.92z" fill="#14B6A4" p-id="15010"></path></svg>